<svg width="620" height="590" viewBox="0 0 620 590" fill="none" xmlns="http://www.w3.org/2000/svg">
<mask id="mask0" mask-type="alpha" maskUnits="userSpaceOnUse" x="0" y="0" width="620" height="590">
<rect width="620" height="590" rx="10" fill="#CCF1F0"/>
</mask>
<g mask="url(#mask0)">
<g opacity="0.4">
<path d="M52 575.765C35.1249 560.737 16.3061 543.079 -4 544.6L-3.99902 590.862H619.883V396.078C619.883 396.078 545.676 536.897 521.409 544.6C497.141 552.304 469.323 379.852 443.065 396.078C416.807 412.303 380.786 545.799 353.678 566.514C326.57 587.228 321.168 432.866 284.537 469.122C247.906 505.377 226.02 531.38 203.963 544.6C181.906 557.821 148.606 470.586 127.95 493.47C107.294 516.353 68.8751 590.792 52 575.765Z" fill="#09B9B3" fill-opacity="0.1"/>
<path d="M-4 544.601C16.3061 543.079 35.1249 561.911 52 576.938C68.8751 591.966 107.294 516.353 127.95 493.47C148.606 470.586 181.906 557.821 203.963 544.601C226.019 531.38 247.906 505.377 284.537 469.122C321.168 432.866 326.57 587.228 353.678 566.514C380.786 545.799 416.807 412.303 443.065 396.078C469.323 379.852 497.141 552.304 521.409 544.601C545.676 536.897 599.161 412.323 619.883 396.078" stroke="#00BAB3" stroke-width="2"/>
<path d="M108.486 517.388C76.061 517.843 69.1889 561.876 45.1067 565.913C28.7445 568.656 18.6323 522.758 -2.09148 493.126L-2.0918 590.176H620V468.863C620 468.863 590.871 560.795 570.565 565.913C550.259 571.031 505.15 394.483 481.078 395.001C457.006 395.52 380.383 511.664 353.68 517.388C326.977 523.113 312.062 593.588 283.259 569.478C254.455 545.368 232.168 489.05 205.56 493.126C178.952 497.201 140.911 516.933 108.486 517.388Z" fill="#387469" fill-opacity="0.1"/>
<path d="M620 468.863C620 468.863 590.871 560.795 570.565 565.913C550.259 571.031 505.15 394.483 481.078 395.001C457.006 395.519 380.383 511.663 353.679 517.388C326.976 523.112 312.062 593.587 283.258 569.477C254.455 545.367 232.168 489.05 205.56 493.125C178.952 497.201 140.91 516.933 108.485 517.388C76.0607 517.843 69.1886 561.876 45.1064 565.913C28.7442 568.656 18.632 522.758 -2.0918 493.125" stroke="#387469" stroke-width="2"/>
</g>
</g>
</svg>
